<?xml version="1.0" standalone="no"?>
<!DOCTYPE svg PUBLIC "-//W3C//DTD SVG 20010904//EN"
 "http://www.w3.org/TR/2001/REC-SVG-20010904/DTD/svg10.dtd">
<svg version="1.0" xmlns="http://www.w3.org/2000/svg"
 width="512.000000pt" height="512.000000pt" viewBox="0 0 512.000000 512.000000"
 preserveAspectRatio="xMidYMid meet">

<g transform="translate(0.000000,512.000000) scale(0.100000,-0.100000)"
fill="#000000" stroke="none">
<path d="M3400 4204 c-64 -21 -93 -41 -116 -79 -42 -73 -28 -165 35 -218 61
-51 124 -53 199 -7 47 29 72 76 72 135 0 73 -25 114 -90 148 -53 27 -70 30
-100 21z m58 -126 c20 -20 15 -72 -9 -86 -43 -27 -98 40 -63 79 19 21 54 25
72 7z"/>
<path d="M1585 4186 c-124 -54 -124 -233 0 -303 116 -65 253 28 242 165 -4 59
-26 95 -77 130 -38 26 -116 30 -165 8z m109 -112 c29 -28 13 -94 -22 -94 -49
0 -82 66 -50 98 17 17 54 15 72 -4z"/>
<path d="M4673 3880 c-44 -10 -92 -40 -116 -72 -27 -37 -35 -126 -14 -168 15
-28 15 -32 -1 -49 -9 -10 -46 -54 -81 -97 -36 -43 -68 -83 -72 -87 -4 -5 -45
19 -90 53 -46 34 -138 88 -204 121 -357 175 -668 193 -960 55 -159 -75 -332
-239 -465 -440 -104 -155 -105 -163 -105 -571 l0 -350 29 -85 c44 -133 99
-229 191 -335 273 -318 307 -415 322 -910 6 -224 11 -245 58 -245 49 0 55 23
55 202 0 507 -53 684 -284 952 -215 249 -265 372 -258 639 l2 77 264 0 263 0
-3 -92 c-3 -88 -5 -93 -26 -96 -34 -6 -48 -21 -48 -52 0 -37 26 -56 84 -63 34
-3 52 -11 59 -23 5 -11 38 -47 73 -81 53 -52 76 -66 130 -83 78 -24 172 -26
240 -5 27 8 52 15 57 15 4 0 7 -34 7 -75 0 -81 -1 -84 -73 -135 -100 -71 -133
-213 -86 -366 32 -103 94 -159 279 -253 80 -41 146 -75 147 -76 1 0 -14 -39
-34 -86 -36 -81 -37 -89 -41 -220 -4 -129 -3 -138 17 -158 24 -24 49 -27 75
-8 16 11 19 32 22 144 3 135 9 160 49 229 l25 42 87 -28 c225 -72 364 -54 449
57 59 78 65 164 22 326 l-21 77 37 33 c31 26 39 41 43 78 4 31 0 54 -10 70
-10 17 -13 38 -8 74 5 42 11 52 41 71 19 13 50 35 68 49 55 46 48 67 -88 279
-66 102 -120 189 -120 193 0 3 12 36 28 72 25 62 27 75 27 216 0 112 -5 168
-18 220 -26 100 -106 258 -171 339 -47 58 -54 72 -44 85 7 9 46 55 87 104 68
80 76 87 110 87 21 0 60 11 88 25 82 41 123 140 92 222 -27 73 -112 120 -186
103z m61 -129 c22 -24 17 -70 -9 -87 -47 -31 -108 44 -70 86 23 25 57 26 79 1z
m-1039 -152 c183 -30 397 -125 538 -237 l49 -39 -1 -164 -2 -164 -154 -154
-154 -154 -54 52 -54 52 128 122 127 122 -2 110 c-1 105 -2 110 -25 121 -16 8
-32 9 -48 3 -22 -8 -33 0 -116 86 l-90 95 -148 0 -147 0 -76 73 c-42 39 -76
75 -76 79 0 18 189 16 305 -3z m-380 -71 c42 -63 134 -157 183 -185 l42 -25 0
-224 0 -224 -27 -6 c-60 -14 -146 -69 -197 -126 l-53 -58 -294 2 -294 3 -3 53
-3 52 256 0 257 0 119 117 119 116 0 56 0 56 -86 85 c-93 93 -240 267 -232
276 9 9 162 74 174 74 6 0 24 -19 39 -42z m-282 -145 c9 -16 73 -88 142 -162
l124 -134 -49 -57 c-28 -32 -68 -74 -90 -94 l-40 -36 -226 0 -226 0 7 33 c11
50 61 153 107 221 40 59 215 256 228 256 3 0 13 -12 23 -27z m853 -150 c65
-67 104 -115 104 -128 -1 -12 -48 -69 -116 -139 l-115 -119 -54 12 -55 12 0
235 0 234 66 0 65 0 105 -107z m553 -58 c96 -127 140 -239 160 -402 14 -114 3
-198 -39 -290 -17 -36 -30 -76 -30 -88 0 -12 15 -42 33 -66 19 -24 58 -82 87
-129 29 -47 68 -108 87 -135 18 -28 33 -53 33 -57 0 -4 -24 -23 -54 -42 -83
-53 -107 -104 -71 -152 8 -10 15 -30 15 -43 0 -28 -21 -91 -30 -91 -3 0 -14
-6 -24 -13 -15 -11 -19 -31 -22 -105 -3 -80 0 -98 21 -144 47 -101 28 -194
-48 -229 -55 -25 -96 -24 -209 5 -117 30 -205 67 -378 159 -168 90 -233 147
-248 223 -25 117 38 244 121 244 44 0 49 18 48 180 l-2 152 37 40 c71 79 110
203 98 315 l-6 62 186 189 186 189 0 141 c0 78 2 142 4 142 2 0 22 -25 45 -55z
m-708 -442 c59 -26 113 -75 147 -132 24 -41 27 -56 27 -141 0 -86 -3 -100 -27
-142 -58 -98 -174 -155 -294 -145 -136 10 -254 130 -271 276 -14 119 74 247
205 296 50 20 155 13 213 -12z"/>
<path d="M2925 3135 c-37 -36 -34 -86 6 -119 40 -34 64 -33 100 3 54 54 23
141 -51 141 -19 0 -40 -9 -55 -25z"/>
<path d="M3765 3147 c-21 -16 -15 -61 11 -71 39 -15 73 41 42 72 -16 16 -30
15 -53 -1z"/>
<path d="M3542 2657 c-50 -19 -102 -65 -123 -111 -73 -160 87 -342 247 -281
154 59 204 233 98 339 -59 59 -147 80 -222 53z m129 -126 c50 -51 31 -139 -34
-160 -45 -15 -81 -1 -107 41 -29 47 -25 75 14 114 44 44 86 46 127 5z"/>
<path d="M330 3853 c-41 -21 -77 -71 -86 -120 -14 -76 60 -186 133 -198 56 -9
60 -13 151 -123 l83 -102 -45 -54 c-182 -224 -253 -542 -172 -779 31 -92 37
-76 -90 -270 -101 -154 -114 -178 -114 -212 0 -39 15 -60 65 -91 25 -16 48
-38 51 -49 5 -21 6 -77 2 -173 -3 -51 -1 -56 36 -90 l40 -36 -18 -65 c-50
-183 -41 -277 32 -354 77 -81 191 -97 367 -52 54 14 106 30 117 36 27 14 50
-7 79 -74 18 -42 23 -75 27 -177 4 -138 15 -170 57 -170 46 0 65 32 65 108 0
115 -19 231 -51 305 -16 38 -29 71 -29 72 0 2 63 36 141 76 162 83 226 135
266 217 25 51 28 67 28 163 0 100 -2 108 -30 155 -17 27 -52 65 -78 84 l-47
35 0 86 0 87 38 -14 c20 -7 74 -13 120 -14 140 0 234 47 317 160 l37 50 58 0
c49 0 61 4 74 22 35 49 14 88 -46 88 l-38 0 0 79 c0 44 -3 86 -6 95 -6 14 21
16 260 16 l266 0 0 -134 c0 -113 -4 -147 -25 -222 -32 -111 -91 -211 -202
-340 -114 -134 -168 -211 -209 -298 -69 -151 -90 -279 -101 -622 -6 -207 -6
-211 15 -232 28 -28 67 -28 86 0 13 18 16 56 16 208 0 314 35 511 117 648 21
35 83 120 140 189 153 187 207 276 254 418 22 67 23 86 27 413 2 228 0 360 -8
396 -35 168 -228 433 -405 555 -97 67 -218 124 -325 152 -284 74 -702 -29
-986 -242 -44 -32 -82 -59 -85 -59 -3 0 -35 33 -69 73 -35 39 -72 82 -83 94
-19 21 -19 22 5 53 18 25 23 45 23 90 0 63 -16 95 -68 134 -38 28 -131 33
-177 9z m118 -105 c7 -7 12 -26 12 -43 0 -17 -5 -36 -12 -43 -30 -30 -88 1
-88 48 0 33 17 50 50 50 14 0 31 -5 38 -12z m1222 -144 l32 -7 -73 -73 -73
-74 -156 0 -155 0 -90 -90 c-79 -80 -94 -90 -125 -90 -55 0 -60 -11 -60 -129
l0 -106 125 -125 125 -125 -53 -53 -52 -52 -155 155 -155 155 -2 168 -1 169
51 39 c190 147 455 242 678 243 59 1 121 -2 139 -5z m227 -75 c46 -23 83 -47
83 -54 0 -16 -123 -155 -229 -260 -80 -79 -81 -80 -81 -130 l0 -50 122 -122
123 -123 242 0 243 0 0 -55 0 -55 -292 0 -293 1 -28 36 c-39 52 -119 109 -188
134 l-59 22 0 226 0 226 46 19 c58 24 139 99 184 169 19 31 37 56 40 57 2 0
42 -18 87 -41z m399 -366 c59 -93 93 -177 94 -225 l0 -38 -207 0 -208 0 -91
91 -92 92 117 127 c65 70 131 144 147 164 l29 37 83 -87 c45 -48 103 -120 128
-161z m-866 -58 l0 -234 -37 -10 c-21 -5 -45 -11 -53 -12 -17 -3 -260 242
-260 262 0 8 48 62 107 121 l108 108 67 0 68 0 0 -235z m-558 -351 l182 -185
1 -102 c2 -126 23 -187 96 -272 l51 -60 -5 -143 c-4 -154 -2 -165 47 -176 17
-4 44 -23 62 -41 68 -72 66 -210 -4 -287 -64 -70 -322 -210 -504 -272 -185
-63 -272 -57 -325 23 -31 46 -30 105 3 178 22 51 24 67 19 133 -8 103 -12 118
-34 125 -39 12 -53 90 -26 141 30 58 13 92 -84 165 -41 30 -48 14 95 230 57
86 106 164 110 172 3 9 -11 53 -32 99 -34 75 -38 93 -42 185 -8 191 57 380
177 518 l26 30 3 -138 3 -138 181 -185z m685 -9 c60 -18 133 -79 170 -142 37
-64 44 -180 15 -246 -28 -63 -97 -136 -157 -163 -76 -36 -173 -34 -253 6 -109
55 -166 143 -166 255 -1 205 194 349 391 290z"/>
<path d="M2053 3159 c-29 -11 -53 -48 -53 -84 0 -38 8 -50 44 -69 34 -17 78
-6 101 27 44 63 -21 152 -92 126z"/>
<path d="M1264 3152 c-31 -21 -18 -72 19 -72 45 0 65 50 28 70 -23 12 -32 12
-47 2z"/>
<path d="M1396 2655 c-110 -39 -166 -173 -117 -280 36 -81 131 -135 210 -120
110 21 181 103 181 210 0 87 -54 161 -138 190 -55 18 -85 18 -136 0z m130
-129 c44 -44 45 -83 5 -128 -58 -65 -156 -26 -156 63 0 34 6 46 33 70 43 39
76 37 118 -5z"/>
</g>
</svg>
